{"title":"Aurangzeb 2013 BRRip 720p x264 Hindi ESubs - ViZNU [P2PDL]","uid":8672263,"size":941600724,"categoryP":"video","categoryS":"hd___movies","magnet":"?xt=urn:btih:ac3c0ced9271d65b6d0919fb394bf7dff43ec7db&amp;dn=Aurangzeb+2013+BRRip+720p+x264+Hindi+ESubs+-+ViZNU+%5BP2PDL%5D&amp;tr=udp%3A%2F%2Ftracker.openbittorrent.com%3A80&amp;tr=udp%3A%2F%2Fopen.demonii.com%3A1337&amp;tr=udp%3A%2F%2Ftracker.coppersurfer.tk%3A6969&amp;tr=udp%3A%2F%2Fexodus.desync.com%3A6969","seeders":8,"leechers":3,"uploader":"ValidusVyto","files":-1,"time":1373517750,"description":"_______ Visit us at our Semi Public Bittorrent Community ________\n  &lt;a href=&quot;\nhttp://p2pdl.com&quot; rel=&quot;nofollow&quot; target=&quot;_NEW&quot;&gt;\nhttp://p2pdl.com&lt;/a&gt;  _____________________________ &lt;a href=&quot; http://p2pdl.com&quot; rel=&quot;nofollow&quot; target=&quot;_NEW&quot;&gt; http://p2pdl.com&lt;/a&gt;\n\n\nAurangzeb 2013 BRRip 720p x264 Hindi ESubs - ViZNU\n\n\nGenre: Action | Drama | Thriller\nPlot: A cop goes undercover into a gangster's family as his son. This sets in place a\nchain reaction of complications and increasingly uncontrollable events.. \nDirector: Atul Sabharwal\nStars: Arjun Kapoor, Prithviraj Sukumaran, Rishi Kapoor.\nRated: N/a\n\nInfo: &lt;a href=&quot;\nhttp://www.imdb.com/title/tt2804026/&quot; rel=&quot;nofollow&quot; target=&quot;_NEW&quot;&gt;\nhttp://www.imdb.com/title/tt2804026/&lt;/a&gt;\n\nTrailer:\n\n\nFormat                         : MPEG-4\nFile size                      : 887 MiB\nDuration                       : 2h 17mn\nOverall bit rate               : 902 Kbps\nSource                         : 720p.BluRay-DDR\n\nVideo\nFormat                         : AVC\nBit rate                       : 819 Kbps\nWidth                          : 1 280 pixels\nHeight                         : 544 pixels\nDisplay aspect ratio           : 2.35:1\nFrame rate mode                : Constant\nFrame rate                     : 24.000 fps\nStream size                    : 805 MiB (91%)\nWriting library                : x264 core 130 r2273\n\nAudio\nFormat                         : AAC\nBit rate mode                  : Variable\nBit rate                       : 79.9 Kbps\nChannel(s)                     : 2 channels\nChannel positions              : Front: L R\nSampling rate                  : 48.0 KHz\nStream size                    : 78.5 MiB (9%)\nLanguage                       : Hindi\n\nSubtitle                       : Yes(English)\n\n &lt;a href=&quot;\nhttp://someimage.com/paRZqZL&quot; rel=&quot;nofollow&quot; target=&quot;_NEW&quot;&gt;\nhttp://someimage.com/paRZqZL&lt;/a&gt; &lt;a href=&quot;\nhttp://someimage.com/OtFHgIs&quot; rel=&quot;nofollow&quot; target=&quot;_NEW&quot;&gt;\nhttp://someimage.com/OtFHgIs&lt;/a&gt; &lt;a href=&quot;\nhttp://someimage.com/4hEsREs&quot; rel=&quot;nofollow&quot; target=&quot;_NEW&quot;&gt;\nhttp://someimage.com/4hEsREs&lt;/a&gt; &lt;a href=&quot;\nhttp://someimage.com/1R2jJBy&quot; rel=&quot;nofollow&quot; target=&quot;_NEW&quot;&gt;\nhttp://someimage.com/1R2jJBy&lt;/a&gt; &lt;a href=&quot;\nhttp://someimage.com/Jjo090Y&quot; rel=&quot;nofollow&quot; target=&quot;_NEW&quot;&gt;\nhttp://someimage.com/Jjo090Y&lt;/a&gt; &lt;a href=&quot;\nhttp://someimage.com/VRxza37&quot; rel=&quot;nofollow&quot; target=&quot;_NEW&quot;&gt;\nhttp://someimage.com/VRxza37&lt;/a&gt; &lt;a href=&quot;\nhttp://someimage.com/hCqcKUu&quot; rel=&quot;nofollow&quot; target=&quot;_NEW&quot;&gt;\nhttp://someimage.com/hCqcKUu&lt;/a&gt; &lt;a href=&quot;\nhttp://someimage.com/rpMj6Fs&quot; rel=&quot;nofollow&quot; target=&quot;_NEW&quot;&gt;\nhttp://someimage.com/rpMj6Fs&lt;/a&gt;\n\n\n----------------------------------------------------------------------------------------------------\n\n\nEncoded using revolutionary 10bit encoding, which enables us to provide you more crispier \nand sharper images at small sizes, just make sure you follow our instructions without a fault.\nRecommend to you to use latest version of VLC player. Install K-Lite Codec Pack or shark007 codecs\nin case of any kind of problem in playback (For non-VLC Media Player users). Alternatively, install\nCore AVC codecs, the fastest decoder that there is coupled with Community Center Codec Pack and play\non Windows Media Player Classic. Check sample to be sure.\nEnjoy!\n\nEncoder Notes:Looking For Early Access To Anything You Can Provide DVDScr, R5, DVDR, BluRay, Direct\nAudio, Music Releases and Seedboxes. We require dedicated servers, so as to do more \nand fast releases of movies.\nIf You Got anything to offer please contact us at &quot;&lt;a class=&quot;__cf_email__&quot; href=&quot;/cdn-cgi/l/email-protection&quot; data-cfemail=&quot;6e1e1c092e061b1d06400d0103&quot;&gt;[email&amp;#160;protected]&lt;/a&gt;&lt;script cf-hash='f9e31' type=&quot;text/javascript&quot;&gt;\n/* &lt;![CDATA[ */!function(){try{var t=&quot;currentScript&quot;in document?document.currentScript:function(){for(var t=document.getElementsByTagName(&quot;script&quot;),e=t.length;e--;)if(t[e].getAttribute(&quot;cf-hash&quot;))return t[e]}();if(t&amp;&amp;t.previousSibling){var e,r,n,i,c=t.previousSibling,a=c.getAttribute(&quot;data-cfemail&quot;);if(a){for(e=&quot;&quot;,r=parseInt(a.substr(0,2),16),n=2;a.length-n;n+=2)i=parseInt(a.substr(n,2),16)^r,e+=String.fromCharCode(i);e=document.createTextNode(e),c.parentNode.replaceChild(e,c)}}}catch(u){}}();/* ]]&gt; */&lt;/script&gt;&quot;.\n\nFace book Fan Page:   &lt;a href=&quot;\nhttp://fbl.me/BC&quot; rel=&quot;nofollow&quot; target=&quot;_NEW&quot;&gt;\nhttp://fbl.me/BC&lt;/a&gt;","torrent":{"xt":"urn:btih:ac3c0ced9271d65b6d0919fb394bf7dff43ec7db","amp;dn":"Aurangzeb+2013+BRRip+720p+x264+Hindi+ESubs+-+ViZNU+%5BP2PDL%5D","amp;tr":["udp%3A%2F%2Ftracker.openbittorrent.com%3A80","udp%3A%2F%2Fopen.demonii.com%3A1337","udp%3A%2F%2Ftracker.coppersurfer.tk%3A6969","udp%3A%2F%2Fexodus.desync.com%3A6969"],"infoHash":"ac3c0ced9271d65b6d0919fb394bf7dff43ec7db","infoHashBuffer":{"type":"Buffer","data":[172,60,12,237,146,113,214,91,109,9,25,251,57,75,247,223,244,62,199,219]},"announce":[],"urlList":[]}}